<svg width="65" height="65" viewBox="0 0 65 65" fill="none" xmlns="http://www.w3.org/2000/svg">
<path d="M48.75 35.2083H35.2084V48.75C35.2084 50.2396 33.9896 51.4583 32.5 51.4583C31.0104 51.4583 29.7917 50.2396 29.7917 48.75V35.2083H16.25C14.7604 35.2083 13.5417 33.9896 13.5417 32.5C13.5417 31.0104 14.7604 29.7917 16.25 29.7917H29.7917V16.25C29.7917 14.7604 31.0104 13.5417 32.5 13.5417C33.9896 13.5417 35.2084 14.7604 35.2084 16.25V29.7917H48.75C50.2396 29.7917 51.4584 31.0104 51.4584 32.5C51.4584 33.9896 50.2396 35.2083 48.75 35.2083Z" fill="white"/>
</svg>
