<svg width="65" height="65" viewBox="0 0 65 65" fill="none" xmlns="http://www.w3.org/2000/svg">
<path d="M46.0416 45.0125C47.7169 45.0125 49.075 43.6544 49.075 41.9792C49.075 40.3039 47.7169 38.9458 46.0416 38.9458C44.3664 38.9458 43.0083 40.3039 43.0083 41.9792C43.0083 43.6544 44.3664 45.0125 46.0416 45.0125Z" fill="white"/>
<path fill-rule="evenodd" clip-rule="evenodd" d="M46.0416 47.3958C44.0646 47.3958 40.1104 48.3708 39.975 50.3208C41.3291 52.2438 43.55 53.4896 46.0416 53.4896C48.5333 53.4896 50.7541 52.2438 52.1083 50.3208C51.9729 48.3708 48.0187 47.3958 46.0416 47.3958Z" fill="white"/>
<path fill-rule="evenodd" clip-rule="evenodd" d="M48.75 30.0354V16.9812L28.4375 8.125L8.125 16.9812V30.2792C8.125 42.575 16.7917 54.0854 28.4375 56.875C29.9271 56.5229 31.3625 56.0083 32.7708 55.3854C35.6958 59.5562 40.5437 62.2917 46.0417 62.2917C55.0062 62.2917 62.2917 55.0062 62.2917 46.0417C62.2917 37.9979 56.4417 31.3354 48.75 30.0354ZM29.7917 46.0417C29.7917 47.5583 30.0083 49.0479 30.4146 50.4292C29.7646 50.7271 29.1146 51.025 28.4375 51.2417C19.8521 48.5333 13.5417 39.7583 13.5417 30.2792V20.5292L28.4375 14.0292L43.3333 20.5292V30.0354C35.6417 31.3354 29.7917 37.9979 29.7917 46.0417ZM46.0417 56.875C40.0562 56.875 35.2083 52.0271 35.2083 46.0417C35.2083 40.0562 40.0562 35.2083 46.0417 35.2083C52.0271 35.2083 56.875 40.0562 56.875 46.0417C56.875 52.0271 52.0271 56.875 46.0417 56.875Z" fill="white"/>
</svg>
