<?xml version="1.0" encoding="utf-8"?>
<svg viewBox="0 0 202 50" width="202" height="50" fill="none" xmlns="http://www.w3.org/2000/svg">
  <path d="M37.5 4.16666H12.5C10.2083 4.16666 8.33331 6.04166 8.33331 8.33332V41.6667C8.33331 43.9583 10.2083 45.8333 12.5 45.8333H37.5C39.7916 45.8333 41.6666 43.9583 41.6666 41.6667V8.33332C41.6666 6.04166 39.7916 4.16666 37.5 4.16666ZM18.75 8.33332H22.9166V18.75L20.8333 17.1875L18.75 18.75V8.33332ZM37.5 41.6667H12.5V8.33332H14.5833V27.0833L20.8333 22.3958L27.0833 27.0833V8.33332H37.5V41.6667Z" fill="#3F3D56"/>
  <path d="M 64.661 31.892 L 71.101 31.892 L 71.101 35 L 60.741 35 L 60.741 15.456 L 64.661 15.456 L 64.661 31.892 Z M 75.58 17.64 C 74.889 17.64 74.311 17.425 73.844 16.996 C 73.396 16.548 73.172 15.997 73.172 15.344 C 73.172 14.691 73.396 14.149 73.844 13.72 C 74.311 13.272 74.889 13.048 75.58 13.048 C 76.271 13.048 76.84 13.272 77.288 13.72 C 77.755 14.149 77.988 14.691 77.988 15.344 C 77.988 15.997 77.755 16.548 77.288 16.996 C 76.84 17.425 76.271 17.64 75.58 17.64 Z M 77.512 19.488 L 77.512 35 L 73.592 35 L 73.592 19.488 L 77.512 19.488 Z M 85.305 21.756 C 85.809 21.009 86.5 20.403 87.377 19.936 C 88.273 19.469 89.29 19.236 90.429 19.236 C 91.754 19.236 92.949 19.563 94.013 20.216 C 95.096 20.869 95.945 21.803 96.561 23.016 C 97.196 24.211 97.513 25.601 97.513 27.188 C 97.513 28.775 97.196 30.184 96.561 31.416 C 95.945 32.629 95.096 33.572 94.013 34.244 C 92.949 34.916 91.754 35.252 90.429 35.252 C 89.272 35.252 88.254 35.028 87.377 34.58 C 86.518 34.113 85.828 33.516 85.305 32.788 L 85.305 35 L 81.385 35 L 81.385 14.28 L 85.305 14.28 L 85.305 21.756 Z M 93.509 27.188 C 93.509 26.255 93.313 25.452 92.921 24.78 C 92.548 24.089 92.044 23.567 91.409 23.212 C 90.793 22.857 90.121 22.68 89.393 22.68 C 88.684 22.68 88.012 22.867 87.377 23.24 C 86.761 23.595 86.257 24.117 85.865 24.808 C 85.492 25.499 85.305 26.311 85.305 27.244 C 85.305 28.177 85.492 28.989 85.865 29.68 C 86.257 30.371 86.761 30.903 87.377 31.276 C 88.012 31.631 88.684 31.808 89.393 31.808 C 90.121 31.808 90.793 31.621 91.409 31.248 C 92.044 30.875 92.548 30.343 92.921 29.652 C 93.313 28.961 93.509 28.14 93.509 27.188 Z M 104.282 21.896 C 104.786 21.075 105.439 20.431 106.242 19.964 C 107.063 19.497 107.996 19.264 109.042 19.264 L 109.042 23.38 L 108.006 23.38 C 106.774 23.38 105.84 23.669 105.206 24.248 C 104.59 24.827 104.282 25.835 104.282 27.272 L 104.282 35 L 100.362 35 L 100.362 19.488 L 104.282 19.488 L 104.282 21.896 Z M 110.674 27.188 C 110.674 25.62 110.982 24.229 111.598 23.016 C 112.233 21.803 113.082 20.869 114.146 20.216 C 115.229 19.563 116.433 19.236 117.758 19.236 C 118.915 19.236 119.923 19.469 120.782 19.936 C 121.659 20.403 122.359 20.991 122.882 21.7 L 122.882 19.488 L 126.83 19.488 L 126.83 35 L 122.882 35 L 122.882 32.732 C 122.378 33.46 121.678 34.067 120.782 34.552 C 119.905 35.019 118.887 35.252 117.73 35.252 C 116.423 35.252 115.229 34.916 114.146 34.244 C 113.082 33.572 112.233 32.629 111.598 31.416 C 110.982 30.184 110.674 28.775 110.674 27.188 Z M 122.882 27.244 C 122.882 26.292 122.695 25.48 122.322 24.808 C 121.949 24.117 121.445 23.595 120.81 23.24 C 120.175 22.867 119.494 22.68 118.766 22.68 C 118.038 22.68 117.366 22.857 116.75 23.212 C 116.134 23.567 115.63 24.089 115.238 24.78 C 114.865 25.452 114.678 26.255 114.678 27.188 C 114.678 28.121 114.865 28.943 115.238 29.652 C 115.63 30.343 116.134 30.875 116.75 31.248 C 117.385 31.621 118.057 31.808 118.766 31.808 C 119.494 31.808 120.175 31.631 120.81 31.276 C 121.445 30.903 121.949 30.38 122.322 29.708 C 122.695 29.017 122.882 28.196 122.882 27.244 Z M 134.579 21.896 C 135.083 21.075 135.736 20.431 136.539 19.964 C 137.36 19.497 138.293 19.264 139.339 19.264 L 139.339 23.38 L 138.303 23.38 C 137.071 23.38 136.137 23.669 135.503 24.248 C 134.887 24.827 134.579 25.835 134.579 27.272 L 134.579 35 L 130.659 35 L 130.659 19.488 L 134.579 19.488 L 134.579 21.896 Z M 156.819 19.488 L 147.215 42.336 L 143.043 42.336 L 146.403 34.608 L 140.187 19.488 L 144.583 19.488 L 148.587 30.324 L 152.647 19.488 L 156.819 19.488 Z" fill="#3F3D56"/>
</svg>