<svg width="65" height="65" viewBox="0 0 65 65" fill="none" xmlns="http://www.w3.org/2000/svg">
<path d="M41.9792 37.9167H39.8396L39.0812 37.1854C41.7354 34.0979 43.3333 30.0896 43.3333 25.7292C43.3333 16.0062 35.4521 8.125 25.7292 8.125C16.0062 8.125 8.125 16.0062 8.125 25.7292C8.125 35.4521 16.0062 43.3333 25.7292 43.3333C30.0896 43.3333 34.0979 41.7354 37.1854 39.0812L37.9167 39.8396V41.9792L51.4583 55.4937L55.4937 51.4583L41.9792 37.9167ZM25.7292 37.9167C18.9854 37.9167 13.5417 32.4729 13.5417 25.7292C13.5417 18.9854 18.9854 13.5417 25.7292 13.5417C32.4729 13.5417 37.9167 18.9854 37.9167 25.7292C37.9167 32.4729 32.4729 37.9167 25.7292 37.9167Z" fill="white"/>
</svg>
